PathFileType	3	(X/Y/Z)	E:\ViconData\BIOM9541 2025\Week 7\Wed1100\Hanif deep squat 7-5 Squat 01.trc
DataRate	CameraRate	NumFrames	NumMarkers	Units	OrigDataRate	OrigDataStartFrame	OrigNumFrames
200.0	200.0	13	19	mm	200.0	461	1840	
Frame#	Time	C7			CLAV			RBAK			LASI			RASI			LPSI			RPSI			LTHI			LKNE			LTIB			LANK			LHEE			LTOE			RTHI			RKNE			RTIB			RANK			RHEE			RTOE			
		X1	Y1	Z1	X2	Y2	Z2	X3	Y3	Z3	X4	Y4	Z4	X5	Y5	Z5	X6	Y6	Z6	X7	Y7	Z7	X8	Y8	Z8	X9	Y9	Z9	X10	Y10	Z10	X11	Y11	Z11	X12	Y12	Z12	X13	Y13	Z13	X14	Y14	Z14	X15	Y15	Z15	X16	Y16	Z16	X17	Y17	Z17	X18	Y18	Z18	X19	Y19	Z19	
461	2.3	323.39398	932.10236	-1215.7428	178.7977	843.44281	-1208.4222	344.03928	856.24805	-1368.2295	296.76276	500.00351	-1090.7751	288.96744	519.70996	-1353.3702	459.80283	569.81879	-1175.1113	461.13306	566.96039	-1247.7358	193.00809	425.73856	-934.89655	89.975716	344.15479	-889.16998	198.45302	175.78366	-935.88971	293.98495	63.702858	-1007.622	313.07599	54.720608	-1068.8594	157.97469	38.152874	-969.02875	325.77985	487.76999	-1429.9573	92.937904	334.73679	-1536.98	127.29385	260.57932	-1530.6194	289.31766	69.071579	-1434.925	317.11127	53.958786	-1362.0532	161.98563	39.95351	-1462.1858
462	2.305	323.40213	937.05115	-1215.7064	178.82594	848.2561	-1208.264	343.97104	861.1145	-1368.2236	296.99896	504.3689	-1090.9165	289.01987	524.15704	-1353.3051	459.79578	574.64478	-1175.1844	461.09988	571.66565	-1247.795	192.76732	427.09592	-934.84613	90.335251	344.60782	-889.62872	198.69949	176.0506	-936.00385	293.99292	63.709354	-1007.5091	313.1459	54.794964	-1068.8168	157.97495	38.182259	-968.95056	325.27631	490.99954	-1430.3669	93.428238	335.36548	-1536.5265	127.69305	261.1048	-1530.3358	289.35559	69.14386	-1434.9199	317.82346	53.637627	-1363.599	162.0005	39.989979	-1462.1802
463	2.31	323.38519	941.87848	-1215.7421	178.82164	853.11475	-1208.2134	343.8826	865.93555	-1368.1812	297.15585	508.79681	-1090.9434	289.05649	528.59039	-1353.2096	459.70746	579.2901	-1175.0718	461.06229	576.33875	-1247.8629	192.63654	428.69702	-934.79639	90.703026	345.13156	-890.07758	198.99333	176.35504	-936.164	294.08264	63.706001	-1007.5211	313.20633	54.736237	-1068.7574	158.02351	38.220287	-969.01727	324.80685	494.02863	-1430.6787	93.986298	335.9353	-1536.0782	128.16495	261.53836	-1530.0166	289.40253	69.106506	-1434.9247	317.24268	53.903915	-1362.0914	162.006	39.97802	-1462.1857
464	2.315	323.34171	946.7962	-1215.7468	178.84822	857.99854	-1208.1011	343.86697	870.87891	-1368.1875	297.2074	513.39075	-1091.0238	289.03284	533.05225	-1353.1345	459.69479	583.98364	-1175.3025	461.05566	581.19775	-1247.9458	192.55739	430.34348	-934.81085	91.11425	345.74792	-890.5343	199.25909	176.67242	-936.32684	294.16272	63.685104	-1007.5183	313.23822	54.626133	-1068.6589	158.07259	38.211411	-969.05273	324.35962	497.10245	-1430.9814	94.559219	336.51801	-1535.6038	128.62921	261.98453	-1529.7473	289.44031	69.049149	-1434.9122	317.94452	53.53141	-1363.7279	162.00273	39.875816	-1462.1427
465	2.32	323.33472	951.71674	-1215.7617	178.85069	862.94055	-1208.048	343.81924	875.78082	-1368.2499	297.14679	517.95935	-1090.9645	289.03104	537.59753	-1353.1635	459.61108	588.776	-1175.4047	460.90128	585.99475	-1247.9138	192.43245	432.02319	-934.888	91.510483	346.27606	-890.99829	199.48906	176.96056	-936.45581	294.21075	63.699596	-1007.4905	313.25443	54.552197	-1068.5969	158.07518	38.219334	-969.02826	323.85776	500.24658	-1431.3695	95.072998	337.18677	-1535.1085	129.13608	262.57074	-1529.4547	289.47308	69.060585	-1434.932	317.96985	53.466721	-1363.7858	161.97061	39.861488	-1462.1575
466	2.325	323.32559	956.72272	-1215.7639	178.85941	868.07318	-1208.0925	343.80069	880.78748	-1368.2419	297.14648	522.44202	-1090.988	288.92725	542.24152	-1353.1323	459.4567	593.52344	-1175.2526	460.81558	590.77478	-1247.9799	192.35233	433.58743	-934.92657	91.924423	346.82343	-891.40955	199.78514	177.25262	-936.57599	294.20593	63.685001	-1007.4329	313.30276	54.541805	-1068.5453	158.07494	38.273247	-969.00458	323.3559	503.50082	-1431.7745	95.648514	337.93353	-1534.6226	129.60977	263.1759	-1529.1515	289.46579	69.141449	-1434.9259	317.97659	53.512539	-1363.7396	161.96005	39.928932	-1462.1758
467	2.33	323.34378	961.82867	-1215.8152	178.86713	873.06152	-1208.0046	343.75592	885.78455	-1368.2662	297.05118	527.05182	-1091.0077	288.82663	546.87933	-1353.0927	459.34326	598.34644	-1175.1246	460.59189	595.38953	-1248.0055	192.25444	435.1853	-934.89423	92.368149	347.39563	-891.91913	200.08691	177.56406	-936.74341	290.75674	66.136917	-994.16064	313.31232	54.537663	-1068.4701	158.05928	38.307655	-968.90155	322.83221	506.70291	-1432.0701	96.198784	338.74307	-1534.1273	130.11586	263.88663	-1528.8549	289.51291	69.245346	-1434.9321	317.37219	53.714581	-1362.2441	161.93231	40.002686	-1462.2158
468	2.335	323.36295	966.75122	-1215.8798	178.95062	878.02911	-1208.0112	343.71567	890.74811	-1368.2659	297.01889	531.67041	-1091.2532	288.74841	551.38147	-1353.0125	459.17398	603.20465	-1175.1217	460.45758	600.19098	-1248.0659	192.14198	436.72974	-934.98608	92.78479	347.91754	-892.46411	200.36102	177.90123	-936.89691	294.27521	63.739231	-1007.3696	313.41058	54.581039	-1068.4757	158.06358	38.319553	-968.93225	322.31412	509.85406	-1432.4091	96.825066	339.46936	-1533.5956	130.6684	264.47977	-1528.5092	289.57651	69.270798	-1434.9387	318.03787	53.400322	-1363.8855	161.91479	40.023174	-1462.2412
469	2.34	323.41367	971.79071	-1215.9211	179.01923	882.99799	-1208.0105	343.7879	895.67017	-1368.3049	296.93088	536.40552	-1091.4403	288.60477	555.89618	-1352.9827	459.00711	608.00641	-1175.358	460.29974	605.28021	-1248.0353	191.99652	438.35474	-935.0553	93.194107	348.53821	-892.94177	200.60236	178.16212	-937.10065	294.35266	63.741394	-1007.3366	313.4473	54.468288	-1068.4062	158.10489	38.28896	-969.01758	321.85107	512.85651	-1432.6329	97.489479	340.14758	-1533.0331	131.26808	265.09064	-1528.0758	289.62613	69.20266	-1434.9607	317.41098	53.635967	-1362.3589	161.95288	39.92569	-1462.2467
470	2.345	323.46497	976.83081	-1216.0096	179.10529	888.09174	-1208.1226	343.81088	900.71539	-1368.3597	296.63181	541.06079	-1091.2689	288.48877	560.44855	-1352.9607	458.80914	612.79498	-1175.4939	460.15762	610.02155	-1248.15	191.95554	440.0871	-935.04865	93.659111	349.2085	-893.46198	200.89481	178.53874	-937.28925	294.47119	63.795059	-1007.3719	313.28134	54.183475	-1068.1577	158.13008	38.257477	-969.05695	321.31564	516.02496	-1432.9293	98.115845	340.85483	-1532.4468	131.86723	265.69699	-1527.7089	289.69147	69.160812	-1434.9716	318.07224	53.320118	-1363.845	161.9463	39.882442	-1462.2643
471	2.35	323.43356	981.85199	-1216.0065	179.1937	893.28748	-1208.2383	343.81787	905.75708	-1368.384	296.45526	545.74817	-1091.298	288.31143	565.10413	-1353.0178	458.5741	617.72296	-1175.4988	459.95688	614.89423	-1248.21	191.87157	441.68408	-935.12671	94.104858	349.76617	-894.00006	201.23349	178.87564	-937.47015	294.4903	63.818417	-1007.3291	313.35843	54.205215	-1068.1078	158.15689	38.282745	-969.0329	320.73038	519.25714	-1433.1948	98.808495	341.68713	-1531.8318	132.45934	266.43661	-1527.2799	289.73749	69.210304	-1434.9806	317.51022	53.578083	-1362.4532	161.94131	39.897144	-1462.2849
472	2.355	323.51163	986.98352	-1216.0422	179.26379	898.35345	-1208.1792	343.8674	910.85437	-1368.4165	296.2189	550.51257	-1091.3813	288.14835	569.75488	-1352.9846	458.30331	622.57928	-1175.1385	459.67215	619.79913	-1248.1597	191.78091	443.25168	-935.28894	94.555	350.36816	-894.59766	201.50919	179.26442	-937.59412	294.54419	63.885174	-1007.2825	313.40189	54.2183	-1068.0387	158.14404	38.346615	-969.02515	320.19742	522.44391	-1433.4003	99.422394	342.55292	-1531.1956	133.07332	267.19305	-1526.8213	289.78549	69.288658	-1434.9846	317.52539	53.578548	-1362.416	161.9406	39.937691	-1462.2563
473	2.36	323.62323	992.12372	-1216.0823	179.28952	903.54022	-1208.1455	343.95074	915.96631	-1368.4504	295.96564	555.26379	-1091.3992	287.89328	574.4939	-1353.0114	458.01782	627.46539	-1175.099	459.37296	624.60571	-1248.1456	191.71669	444.897	-935.32355	95.022797	351.07532	-895.17487	201.78578	179.62431	-937.79279	294.55667	63.906506	-1007.205	313.43167	54.16407	-1067.9557	158.15384	38.323681	-968.9873	319.65906	525.67914	-1433.6	100.12106	343.44385	-1530.5474	133.72377	267.94998	-1526.3213	289.83929	69.328751	-1434.9962	318.23544	53.213879	-1363.9209	161.93623	39.930401	-1462.2478
